# xmcd
#
# Track frame offsets:
#	150
#	11751
#	24028
#	37268
#	50849
#	65963
#	79845
#	95049
#	108871
#	121755
#	136543
#	149348
#	162675
#	174095
#	187435
#	201951
#	215418
#	228103
#	239334
#	252409
#	266706
#	281852
#	294089
#	308398
#	321588
#
# Disc length: 4459 seconds
#
# Revision: 0
# Processed by: cddbd v1.5.1PL2 Copyright (c) Steve Scherf et al.
# Submitted via: EasyCDDAExtractor 9.0.0.1
#
DISCID=78116919
DTITLE=Big Joe Turner - Shout, Rattle And Roll [CD1]
DYEAR=2005
DGENRE=R&B
TTITLE0=It's All Right My Baby
TTITLE1=Goin' Away Blue
TTITLE2=Roll 'em Pete
TTITLE3=Cherry Red
TTITLE4=Lovin' Mama Blues
TTITLE5=Cafe Society Rag
TTITLE6=How Long How Long Blues
TTITLE7=Shake It And Break It
TTITLE8=Low Down Dirty Shame
TTITLE9=I Can't Give You Anything But Love
TTITLE10=Joe Turner Blues
TTITLE11=Piney Brown Blues
TTITLE12=Lucille
TTITLE13=Rock Me Mama
TTITLE14=Rocks In My Bed
TTITLE15=Goin' To Chicago (Blues)
TTITLE16=Sun Risin' Blues
TTITLE17=Blues In The Night
TTITLE18=Cry Baby Blues
TTITLE19=I Got A Gal (For Every Day Of The Week)
TTITLE20=Little Bittie Gal's Blues
TTITLE21=Rebecca
TTITLE22=It's The Same Old Story
TTITLE23=S.K. Blues Pt 1
TTITLE24=S.K. Blues Pt 2
EXTD=
EXTT0=
EXTT1=
EXTT2=
EXTT3=
EXTT4=
EXTT5=
EXTT6=
EXTT7=
EXTT8=
EXTT9=
EXTT10=
EXTT11=
EXTT12=
EXTT13=
EXTT14=
EXTT15=
EXTT16=
EXTT17=
EXTT18=
EXTT19=
EXTT20=
EXTT21=
EXTT22=
EXTT23=
EXTT24=
PLAYORDER=
